<svg width="50" height="50" viewBox="0 0 50 50" fill="none" xmlns="http://www.w3.org/2000/svg">
<rect width="50" height="50" rx="5" fill="url(#paint0_linear_5831_386)"/>
<path d="M33.25 12.5833H17.75C15.6058 12.5833 13.875 14.3012 13.875 16.4195V30.5116C13.875 32.6299 15.6058 34.3478 17.75 34.3478H18.7317C19.765 34.3478 20.7467 34.7483 21.47 35.4716L23.6787 37.6545C24.6862 38.6491 26.3267 38.6491 27.3342 37.6545L29.5429 35.4716C30.2662 34.7483 31.2608 34.3478 32.2812 34.3478H33.25C35.3942 34.3478 37.125 32.6299 37.125 30.5116V16.4195C37.125 14.3012 35.3942 12.5833 33.25 12.5833ZM23.4075 26.8045C23.9371 26.8045 24.3762 27.2437 24.3762 27.7733C24.3762 28.3028 23.9371 28.742 23.4075 28.742H19.9458C19.3775 28.742 18.8479 28.4708 18.5121 28.0058C18.1892 27.5666 18.1117 27.0241 18.2667 26.5074C18.7187 25.1253 19.8296 24.3762 20.8112 23.7045C21.8446 23.007 22.4258 22.5678 22.4258 21.8187C22.4258 21.147 21.8833 20.6045 21.2117 20.6045C20.54 20.6045 20.0104 21.1599 20.0104 21.8316C20.0104 22.3612 19.5712 22.8003 19.0417 22.8003C18.5121 22.8003 18.0729 22.3612 18.0729 21.8316C18.0729 20.1008 19.4808 18.6799 21.2246 18.6799C22.9683 18.6799 24.3762 20.0878 24.3762 21.8316C24.3762 23.6528 23.0071 24.5828 21.9092 25.332C21.2246 25.797 20.5787 26.2362 20.2558 26.8174H23.4075V26.8045ZM31.9583 26.8949H31.6871V27.7862C31.6871 28.3158 31.2479 28.7549 30.7183 28.7549C30.1888 28.7549 29.7496 28.3158 29.7496 27.7862V26.8949H27.205C26.5721 26.8949 25.9908 26.5591 25.6679 26.0166C25.345 25.4612 25.345 24.7766 25.6679 24.2341C26.5462 22.7228 27.5667 21.0049 28.4967 19.5066C28.91 18.8478 29.6979 18.5508 30.4342 18.7574C31.1704 18.977 31.6871 19.6487 31.6742 20.4237V24.9703H31.9583C32.4879 24.9703 32.9271 25.4095 32.9271 25.9391C32.9271 26.4687 32.4879 26.8949 31.9583 26.8949Z" fill="#323032"/>
<path d="M29.7496 24.9574V21.1599C28.9875 22.3999 28.1996 23.7303 27.4892 24.9445H29.7496V24.9574Z" fill="#323032"/>
<defs>
<linearGradient id="paint0_linear_5831_386" x1="7.27596e-08" y1="25" x2="50" y2="32.8125" gradientUnits="userSpaceOnUse">
<stop stop-color="#86DFEB"/>
<stop offset="1" stop-color="#8580BA"/>
</linearGradient>
</defs>
</svg>
