<svg width="1440" height="1024" viewBox="0 0 1440 1024" fill="none" xmlns="http://www.w3.org/2000/svg">
<g clip-path="url(#clip0_5831_10)">
<path d="M122.564 57.577L120.572 78.2659C120.387 80.1815 118.198 81.1791 116.631 80.0616L99.7102 67.9919C98.1434 66.8743 98.374 64.4798 100.125 63.6817L119.038 55.0624C120.79 54.2644 122.748 55.6613 122.564 57.577Z" stroke="black" stroke-opacity="0.1"/>
<path d="M446.564 145.577L444.572 166.266C444.387 168.182 442.198 169.179 440.631 168.062L423.71 155.992C422.143 154.874 422.374 152.48 424.125 151.682L443.038 143.062C444.79 142.264 446.748 143.661 446.564 145.577Z" stroke="black" stroke-opacity="0.1"/>
<path d="M118.564 130.577L116.572 151.266C116.387 153.182 114.198 154.179 112.631 153.062L95.7102 140.992C94.1434 139.874 94.374 137.48 96.1252 136.682L115.038 128.062C116.79 127.264 118.748 128.661 118.564 130.577Z" stroke="black" stroke-opacity="0.1"/>
<path d="M163.564 210.577L161.572 231.266C161.387 233.182 159.198 234.179 157.631 233.062L140.71 220.992C139.143 219.874 139.374 217.48 141.125 216.682L160.038 208.062C161.79 207.264 163.748 208.661 163.564 210.577Z" stroke="black" stroke-opacity="0.1"/>
<path d="M323.564 145.577L321.572 166.266C321.387 168.182 319.198 169.179 317.631 168.062L300.71 155.992C299.143 154.874 299.374 152.48 301.125 151.682L320.038 143.062C321.79 142.264 323.748 143.661 323.564 145.577Z" stroke="black" stroke-opacity="0.1"/>
<rect x="169.5" y="92.5" width="19" height="19" rx="2.5" stroke="black" stroke-opacity="0.1"/>
<rect x="279.5" y="235.5" width="19" height="19" rx="2.5" stroke="black" stroke-opacity="0.1"/>
<rect x="241.5" y="47.5" width="19" height="19" rx="2.5" stroke="black" stroke-opacity="0.1"/>
<rect x="221.5" y="184.5" width="19" height="19" rx="2.5" stroke="black" stroke-opacity="0.1"/>
<rect x="355.5" y="105.5" width="19" height="19" rx="2.5" stroke="black" stroke-opacity="0.1"/>
<rect x="402.5" y="61.5" width="19" height="19" rx="2.5" stroke="black" stroke-opacity="0.1"/>
<circle cx="248.5" cy="138.5" r="12" stroke="black" stroke-opacity="0.1"/>
<circle cx="301.5" cy="89.5" r="12" stroke="black" stroke-opacity="0.1"/>
<circle cx="367.5" cy="203.5" r="12" stroke="black" stroke-opacity="0.1"/>
<path d="M97.5636 262.577L95.5715 283.266C95.3871 285.182 93.198 286.179 91.6313 285.062L74.7102 272.992C73.1434 271.874 73.374 269.48 75.1252 268.682L94.0384 260.062C95.7896 259.264 97.7481 260.661 97.5636 262.577Z" stroke="black" stroke-opacity="0.1"/>
<path d="M421.564 350.577L419.572 371.266C419.387 373.182 417.198 374.179 415.631 373.062L398.71 360.992C397.143 359.874 397.374 357.48 399.125 356.682L418.038 348.062C419.79 347.264 421.748 348.661 421.564 350.577Z" stroke="black" stroke-opacity="0.1"/>
<path d="M93.5636 335.577L91.5715 356.266C91.3871 358.182 89.198 359.179 87.6313 358.062L70.7102 345.992C69.1434 344.874 69.374 342.48 71.1252 341.682L90.0384 333.062C91.7896 332.264 93.7481 333.661 93.5636 335.577Z" stroke="black" stroke-opacity="0.1"/>
<path d="M138.564 415.577L136.572 436.266C136.387 438.182 134.198 439.179 132.631 438.062L115.71 425.992C114.143 424.874 114.374 422.48 116.125 421.682L135.038 413.062C136.79 412.264 138.748 413.661 138.564 415.577Z" stroke="black" stroke-opacity="0.1"/>
<path d="M298.564 350.577L296.572 371.266C296.387 373.182 294.198 374.179 292.631 373.062L275.71 360.992C274.143 359.874 274.374 357.48 276.125 356.682L295.038 348.062C296.79 347.264 298.748 348.661 298.564 350.577Z" stroke="black" stroke-opacity="0.1"/>
<rect x="144.5" y="297.5" width="19" height="19" rx="2.5" stroke="black" stroke-opacity="0.1"/>
<rect x="254.5" y="440.5" width="19" height="19" rx="2.5" stroke="black" stroke-opacity="0.1"/>
<rect x="216.5" y="252.5" width="19" height="19" rx="2.5" stroke="black" stroke-opacity="0.1"/>
<rect x="196.5" y="389.5" width="19" height="19" rx="2.5" stroke="black" stroke-opacity="0.1"/>
<rect x="330.5" y="310.5" width="19" height="19" rx="2.5" stroke="black" stroke-opacity="0.1"/>
<rect x="377.5" y="266.5" width="19" height="19" rx="2.5" stroke="black" stroke-opacity="0.1"/>
<circle cx="223.5" cy="343.5" r="12" stroke="black" stroke-opacity="0.1"/>
<circle cx="276.5" cy="294.5" r="12" stroke="black" stroke-opacity="0.1"/>
<circle cx="342.5" cy="408.5" r="12" stroke="black" stroke-opacity="0.1"/>
<path d="M504.564 91.577L502.572 112.266C502.387 114.182 500.198 115.179 498.631 114.062L481.71 101.992C480.143 100.874 480.374 98.4798 482.125 97.6817L501.038 89.0624C502.79 88.2644 504.748 89.6613 504.564 91.577Z" stroke="black" stroke-opacity="0.1"/>
<path d="M828.564 179.577L826.572 200.266C826.387 202.182 824.198 203.179 822.631 202.062L805.71 189.992C804.143 188.874 804.374 186.48 806.125 185.682L825.038 177.062C826.79 176.264 828.748 177.661 828.564 179.577Z" stroke="black" stroke-opacity="0.1"/>
<path d="M500.564 164.577L498.572 185.266C498.387 187.182 496.198 188.179 494.631 187.062L477.71 174.992C476.143 173.874 476.374 171.48 478.125 170.682L497.038 162.062C498.79 161.264 500.748 162.661 500.564 164.577Z" stroke="black" stroke-opacity="0.1"/>
<path d="M545.564 244.577L543.572 265.266C543.387 267.182 541.198 268.179 539.631 267.062L522.71 254.992C521.143 253.874 521.374 251.48 523.125 250.682L542.038 242.062C543.79 241.264 545.748 242.661 545.564 244.577Z" stroke="black" stroke-opacity="0.1"/>
<path d="M705.564 179.577L703.572 200.266C703.387 202.182 701.198 203.179 699.631 202.062L682.71 189.992C681.143 188.874 681.374 186.48 683.125 185.682L702.038 177.062C703.79 176.264 705.748 177.661 705.564 179.577Z" stroke="black" stroke-opacity="0.1"/>
<rect x="551.5" y="126.5" width="19" height="19" rx="2.5" stroke="black" stroke-opacity="0.1"/>
<rect x="661.5" y="269.5" width="19" height="19" rx="2.5" stroke="black" stroke-opacity="0.1"/>
<rect x="623.5" y="81.5" width="19" height="19" rx="2.5" stroke="black" stroke-opacity="0.1"/>
<rect x="603.5" y="218.5" width="19" height="19" rx="2.5" stroke="black" stroke-opacity="0.1"/>
<rect x="737.5" y="139.5" width="19" height="19" rx="2.5" stroke="black" stroke-opacity="0.1"/>
<rect x="784.5" y="95.5" width="19" height="19" rx="2.5" stroke="black" stroke-opacity="0.1"/>
<circle cx="630.5" cy="172.5" r="12" stroke="black" stroke-opacity="0.1"/>
<circle cx="683.5" cy="123.5" r="12" stroke="black" stroke-opacity="0.1"/>
<circle cx="749.5" cy="237.5" r="12" stroke="black" stroke-opacity="0.1"/>
<path d="M892.564 47.577L890.572 68.2659C890.387 70.1815 888.198 71.1791 886.631 70.0616L869.71 57.9919C868.143 56.8743 868.374 54.4798 870.125 53.6817L889.038 45.0624C890.79 44.2644 892.748 45.6613 892.564 47.577Z" stroke="black" stroke-opacity="0.1"/>
<path d="M1216.56 135.577L1214.57 156.266C1214.39 158.182 1212.2 159.179 1210.63 158.062L1193.71 145.992C1192.14 144.874 1192.37 142.48 1194.13 141.682L1213.04 133.062C1214.79 132.264 1216.75 133.661 1216.56 135.577Z" stroke="black" stroke-opacity="0.1"/>
<path d="M888.564 120.577L886.572 141.266C886.387 143.182 884.198 144.179 882.631 143.062L865.71 130.992C864.143 129.874 864.374 127.48 866.125 126.682L885.038 118.062C886.79 117.264 888.748 118.661 888.564 120.577Z" stroke="black" stroke-opacity="0.1"/>
<path d="M933.564 200.577L931.572 221.266C931.387 223.182 929.198 224.179 927.631 223.062L910.71 210.992C909.143 209.874 909.374 207.48 911.125 206.682L930.038 198.062C931.79 197.264 933.748 198.661 933.564 200.577Z" stroke="black" stroke-opacity="0.1"/>
<path d="M1093.56 135.577L1091.57 156.266C1091.39 158.182 1089.2 159.179 1087.63 158.062L1070.71 145.992C1069.14 144.874 1069.37 142.48 1071.13 141.682L1090.04 133.062C1091.79 132.264 1093.75 133.661 1093.56 135.577Z" stroke="black" stroke-opacity="0.1"/>
<rect x="939.5" y="82.5" width="19" height="19" rx="2.5" stroke="black" stroke-opacity="0.1"/>
<rect x="1049.5" y="225.5" width="19" height="19" rx="2.5" stroke="black" stroke-opacity="0.1"/>
<rect x="1011.5" y="37.5" width="19" height="19" rx="2.5" stroke="black" stroke-opacity="0.1"/>
<rect x="991.5" y="174.5" width="19" height="19" rx="2.5" stroke="black" stroke-opacity="0.1"/>
<rect x="1125.5" y="95.5" width="19" height="19" rx="2.5" stroke="black" stroke-opacity="0.1"/>
<rect x="1172.5" y="51.5" width="19" height="19" rx="2.5" stroke="black" stroke-opacity="0.1"/>
<circle cx="1018.5" cy="128.5" r="12" stroke="black" stroke-opacity="0.1"/>
<circle cx="1071.5" cy="79.5" r="12" stroke="black" stroke-opacity="0.1"/>
<circle cx="1137.5" cy="193.5" r="12" stroke="black" stroke-opacity="0.1"/>
<path d="M1421.42 38.5637L1400.73 36.5716C1398.82 36.3871 1397.82 34.1981 1398.94 32.6313L1411.01 15.7102C1412.13 14.1435 1414.52 14.3741 1415.32 16.1253L1423.94 35.0385C1424.74 36.7897 1423.34 38.7481 1421.42 38.5637Z" stroke="black" stroke-opacity="0.1"/>
<path d="M1333.42 362.564L1312.73 360.572C1310.82 360.387 1309.82 358.198 1310.94 356.631L1323.01 339.71C1324.13 338.143 1326.52 338.374 1327.32 340.125L1335.94 359.038C1336.74 360.79 1335.34 362.748 1333.42 362.564Z" stroke="black" stroke-opacity="0.1"/>
<path d="M1348.42 34.5637L1327.73 32.5716C1325.82 32.3871 1324.82 30.1981 1325.94 28.6313L1338.01 11.7102C1339.13 10.1435 1341.52 10.3741 1342.32 12.1253L1350.94 31.0385C1351.74 32.7897 1350.34 34.7481 1348.42 34.5637Z" stroke="black" stroke-opacity="0.1"/>
<path d="M1268.42 79.5636L1247.73 77.5715C1245.82 77.3871 1244.82 75.198 1245.94 73.6313L1258.01 56.7102C1259.13 55.1434 1261.52 55.374 1262.32 57.1252L1270.94 76.0384C1271.74 77.7896 1270.34 79.7481 1268.42 79.5636Z" stroke="black" stroke-opacity="0.1"/>
<path d="M1333.42 239.564L1312.73 237.572C1310.82 237.387 1309.82 235.198 1310.94 233.631L1323.01 216.71C1324.13 215.143 1326.52 215.374 1327.32 217.125L1335.94 236.038C1336.74 237.79 1335.34 239.748 1333.42 239.564Z" stroke="black" stroke-opacity="0.1"/>
<rect x="1386.5" y="85.5" width="19" height="19" rx="2.5" transform="rotate(90 1386.5 85.5)" stroke="black" stroke-opacity="0.1"/>
<rect x="1243.5" y="195.5" width="19" height="19" rx="2.5" transform="rotate(90 1243.5 195.5)" stroke="black" stroke-opacity="0.1"/>
<rect x="1431.5" y="157.5" width="19" height="19" rx="2.5" transform="rotate(90 1431.5 157.5)" stroke="black" stroke-opacity="0.1"/>
<rect x="1294.5" y="137.5" width="19" height="19" rx="2.5" transform="rotate(90 1294.5 137.5)" stroke="black" stroke-opacity="0.1"/>
<rect x="1373.5" y="271.5" width="19" height="19" rx="2.5" transform="rotate(90 1373.5 271.5)" stroke="black" stroke-opacity="0.1"/>
<rect x="1417.5" y="318.5" width="19" height="19" rx="2.5" transform="rotate(90 1417.5 318.5)" stroke="black" stroke-opacity="0.1"/>
<circle cx="1340.5" cy="164.5" r="12" transform="rotate(90 1340.5 164.5)" stroke="black" stroke-opacity="0.1"/>
<circle cx="1389.5" cy="217.5" r="12" transform="rotate(90 1389.5 217.5)" stroke="black" stroke-opacity="0.1"/>
<circle cx="1275.5" cy="283.5" r="12" transform="rotate(90 1275.5 283.5)" stroke="black" stroke-opacity="0.1"/>
<path d="M1187.84 424.998L1169.57 415.081C1167.88 414.162 1167.82 411.757 1169.46 410.752L1187.18 399.892C1188.82 398.886 1190.94 400.034 1190.99 401.958L1191.53 422.736C1191.58 424.659 1189.53 425.916 1187.84 424.998Z" stroke="black" stroke-opacity="0.1"/>
<path d="M1235.9 311.776L1217.63 301.859C1215.94 300.94 1215.88 298.535 1217.52 297.53L1235.24 286.67C1236.88 285.664 1239 286.812 1239.05 288.736L1239.59 309.514C1239.64 311.437 1237.59 312.694 1235.9 311.776Z" stroke="black" stroke-opacity="0.1"/>
<rect x="1170.34" y="236.08" width="19" height="19" rx="2.5" transform="rotate(113 1170.34 236.08)" stroke="black" stroke-opacity="0.1"/>
<circle cx="1165.41" cy="329.587" r="12" transform="rotate(113 1165.41 329.587)" stroke="black" stroke-opacity="0.1"/>
<path d="M1097.56 401.577L1095.57 422.266C1095.39 424.182 1093.2 425.179 1091.63 424.062L1074.71 411.992C1073.14 410.874 1073.37 408.48 1075.13 407.682L1094.04 399.062C1095.79 398.264 1097.75 399.661 1097.56 401.577Z" stroke="black" stroke-opacity="0.1"/>
<path d="M1421.56 489.577L1419.57 510.266C1419.39 512.182 1417.2 513.179 1415.63 512.062L1398.71 499.992C1397.14 498.874 1397.37 496.48 1399.13 495.682L1418.04 487.062C1419.79 486.264 1421.75 487.661 1421.56 489.577Z" stroke="black" stroke-opacity="0.1"/>
<path d="M1093.56 474.577L1091.57 495.266C1091.39 497.182 1089.2 498.179 1087.63 497.062L1070.71 484.992C1069.14 483.874 1069.37 481.48 1071.13 480.682L1090.04 472.062C1091.79 471.264 1093.75 472.661 1093.56 474.577Z" stroke="black" stroke-opacity="0.1"/>
<path d="M1138.56 554.577L1136.57 575.266C1136.39 577.182 1134.2 578.179 1132.63 577.062L1115.71 564.992C1114.14 563.874 1114.37 561.48 1116.13 560.682L1135.04 552.062C1136.79 551.264 1138.75 552.661 1138.56 554.577Z" stroke="black" stroke-opacity="0.1"/>
<path d="M1298.56 489.577L1296.57 510.266C1296.39 512.182 1294.2 513.179 1292.63 512.062L1275.71 499.992C1274.14 498.874 1274.37 496.48 1276.13 495.682L1295.04 487.062C1296.79 486.264 1298.75 487.661 1298.56 489.577Z" stroke="black" stroke-opacity="0.1"/>
<rect x="1144.5" y="436.5" width="19" height="19" rx="2.5" stroke="black" stroke-opacity="0.1"/>
<rect x="1254.5" y="579.5" width="19" height="19" rx="2.5" stroke="black" stroke-opacity="0.1"/>
<rect x="1216.5" y="391.5" width="19" height="19" rx="2.5" stroke="black" stroke-opacity="0.1"/>
<rect x="1196.5" y="528.5" width="19" height="19" rx="2.5" stroke="black" stroke-opacity="0.1"/>
<rect x="1330.5" y="449.5" width="19" height="19" rx="2.5" stroke="black" stroke-opacity="0.1"/>
<rect x="1377.5" y="405.5" width="19" height="19" rx="2.5" stroke="black" stroke-opacity="0.1"/>
<circle cx="1223.5" cy="482.5" r="12" stroke="black" stroke-opacity="0.1"/>
<circle cx="1276.5" cy="433.5" r="12" stroke="black" stroke-opacity="0.1"/>
<circle cx="1342.5" cy="547.5" r="12" stroke="black" stroke-opacity="0.1"/>
<path d="M40.5636 498.577L38.5715 519.266C38.3871 521.182 36.198 522.179 34.6313 521.062L17.7102 508.992C16.1434 507.874 16.374 505.48 18.1252 504.682L37.0384 496.062C38.7896 495.264 40.7481 496.661 40.5636 498.577Z" stroke="black" stroke-opacity="0.1"/>
<path d="M364.564 586.577L362.572 607.266C362.387 609.182 360.198 610.179 358.631 609.062L341.71 596.992C340.143 595.874 340.374 593.48 342.125 592.682L361.038 584.062C362.79 583.264 364.748 584.661 364.564 586.577Z" stroke="black" stroke-opacity="0.1"/>
<path d="M36.5636 571.577L34.5715 592.266C34.3871 594.182 32.198 595.179 30.6313 594.062L13.7102 581.992C12.1434 580.874 12.374 578.48 14.1252 577.682L33.0384 569.062C34.7896 568.264 36.7481 569.661 36.5636 571.577Z" stroke="black" stroke-opacity="0.1"/>
<path d="M241.564 586.577L239.572 607.266C239.387 609.182 237.198 610.179 235.631 609.062L218.71 596.992C217.143 595.874 217.374 593.48 219.125 592.682L238.038 584.062C239.79 583.264 241.748 584.661 241.564 586.577Z" stroke="black" stroke-opacity="0.1"/>
<rect x="87.5" y="533.5" width="19" height="19" rx="2.5" stroke="black" stroke-opacity="0.1"/>
<rect x="159.5" y="488.5" width="19" height="19" rx="2.5" stroke="black" stroke-opacity="0.1"/>
<rect x="273.5" y="546.5" width="19" height="19" rx="2.5" stroke="black" stroke-opacity="0.1"/>
<rect x="320.5" y="502.5" width="19" height="19" rx="2.5" stroke="black" stroke-opacity="0.1"/>
<circle cx="166.5" cy="579.5" r="12" stroke="black" stroke-opacity="0.1"/>
<circle cx="219.5" cy="530.5" r="12" stroke="black" stroke-opacity="0.1"/>
<path d="M567.235 210.681L548.97 220.599C547.278 221.517 545.227 220.26 545.278 218.336L545.822 197.559C545.872 195.635 547.986 194.487 549.627 195.493L567.349 206.353C568.99 207.358 568.927 209.763 567.235 210.681Z" stroke="black" stroke-opacity="0.1"/>
<path d="M675.459 528.498L657.193 538.416C655.501 539.334 653.45 538.077 653.501 536.153L654.045 515.376C654.095 513.452 656.209 512.304 657.85 513.31L675.572 524.17C677.213 525.175 677.15 527.58 675.459 528.498Z" stroke="black" stroke-opacity="0.1"/>
<path d="M504.479 248.186L486.213 258.104C484.522 259.022 482.471 257.765 482.521 255.841L483.065 235.064C483.116 233.14 485.23 231.992 486.871 232.998L504.592 243.858C506.233 244.863 506.17 247.268 504.479 248.186Z" stroke="black" stroke-opacity="0.1"/>
<path d="M463.32 330.228L445.054 340.146C443.363 341.064 441.312 339.807 441.362 337.883L441.906 317.106C441.957 315.182 444.071 314.034 445.712 315.04L463.433 325.9C465.074 326.905 465.011 329.31 463.32 330.228Z" stroke="black" stroke-opacity="0.1"/>
<path d="M606.678 426.527L588.412 436.444C586.721 437.363 584.67 436.106 584.72 434.182L585.264 413.404C585.314 411.48 587.429 410.333 589.069 411.338L606.791 422.198C608.432 423.204 608.369 425.608 606.678 426.527Z" stroke="black" stroke-opacity="0.1"/>
<rect x="564.53" y="269.122" width="19" height="19" rx="2.5" transform="rotate(56 564.53 269.122)" stroke="black" stroke-opacity="0.1"/>
<rect x="507.489" y="440.281" width="19" height="19" rx="2.5" transform="rotate(56 507.489 440.281)" stroke="black" stroke-opacity="0.1"/>
<rect x="642.098" y="303.649" width="19" height="19" rx="2.5" transform="rotate(56 642.098 303.649)" stroke="black" stroke-opacity="0.1"/>
<rect x="517.336" y="363.678" width="19" height="19" rx="2.5" transform="rotate(56 517.336 363.678)" stroke="black" stroke-opacity="0.1"/>
<rect x="657.762" y="430.592" width="19" height="19" rx="2.5" transform="rotate(56 657.762 430.592)" stroke="black" stroke-opacity="0.1"/>
<rect x="720.522" y="444.953" width="19" height="19" rx="2.5" transform="rotate(56 720.522 444.953)" stroke="black" stroke-opacity="0.1"/>
<circle cx="570.57" cy="360.339" r="12" transform="rotate(56 570.57 360.339)" stroke="black" stroke-opacity="0.1"/>
<circle cx="640.83" cy="376.877" r="12" transform="rotate(56 640.83 376.877)" stroke="black" stroke-opacity="0.1"/>
<circle cx="583.227" cy="495.342" r="12" transform="rotate(56 583.227 495.342)" stroke="black" stroke-opacity="0.1"/>
<path d="M743.443 491.283L742.717 512.055C742.65 513.978 740.526 515.108 738.894 514.088L721.268 503.074C719.636 502.054 719.72 499.65 721.419 498.746L739.771 488.988C741.47 488.085 743.51 489.36 743.443 491.283Z" stroke="black" stroke-opacity="0.1"/>
<path d="M1072.21 559.339L1071.49 580.111C1071.42 582.034 1069.29 583.164 1067.66 582.144L1050.04 571.13C1048.4 570.11 1048.49 567.706 1050.19 566.802L1068.54 557.044C1070.24 556.141 1072.28 557.416 1072.21 559.339Z" stroke="black" stroke-opacity="0.1"/>
<path d="M743.907 564.391L743.181 585.163C743.114 587.086 740.99 588.216 739.358 587.196L721.732 576.182C720.1 575.162 720.183 572.758 721.883 571.854L740.234 562.096C741.934 561.193 743.974 562.468 743.907 564.391Z" stroke="black" stroke-opacity="0.1"/>
<path d="M949.44 566.848L948.714 587.62C948.647 589.543 946.523 590.673 944.891 589.653L927.265 578.639C925.633 577.619 925.717 575.215 927.416 574.311L945.768 564.553C947.467 563.65 949.507 564.925 949.44 566.848Z" stroke="black" stroke-opacity="0.1"/>
<rect x="792.424" y="523.276" width="19" height="19" rx="2.5" transform="rotate(-3.5 792.424 523.276)" stroke="black" stroke-opacity="0.1"/>
<rect x="861.542" y="473.964" width="19" height="19" rx="2.5" transform="rotate(-3.5 861.542 473.964)" stroke="black" stroke-opacity="0.1"/>
<rect x="978.87" y="524.896" width="19" height="19" rx="2.5" transform="rotate(-3.5 978.87 524.896)" stroke="black" stroke-opacity="0.1"/>
<rect x="1023.1" y="478.109" width="19" height="19" rx="2.5" transform="rotate(-3.5 1023.1 478.109)" stroke="black" stroke-opacity="0.1"/>
<circle cx="874.085" cy="564.367" r="12" transform="rotate(-3.5 874.085 564.367)" stroke="black" stroke-opacity="0.1"/>
<circle cx="923.994" cy="512.223" r="12" transform="rotate(-3.5 923.994 512.223)" stroke="black" stroke-opacity="0.1"/>
<path d="M639.338 603.146L621.338 592.753C619.672 591.791 619.672 589.386 621.338 588.423L639.338 578.031C641.005 577.069 643.088 578.272 643.088 580.196L643.088 600.981C643.088 602.905 641.005 604.108 639.338 603.146Z" stroke="black" stroke-opacity="0.1"/>
<path d="M553.338 546.146L535.338 535.753C533.672 534.791 533.672 532.386 535.338 531.423L553.338 521.031C555.005 520.069 557.088 521.272 557.088 523.196L557.088 543.981C557.088 545.905 555.005 547.108 553.338 546.146Z" stroke="black" stroke-opacity="0.1"/>
<path d="M430.338 454.146L412.338 443.753C410.672 442.791 410.672 440.386 412.338 439.423L430.338 429.031C432.005 428.069 434.088 429.272 434.088 431.196L434.088 451.981C434.088 453.905 432.005 455.108 430.338 454.146Z" stroke="black" stroke-opacity="0.1"/>
<rect x="497.907" y="495.131" width="19" height="19" rx="2.5" transform="rotate(114.5 497.907 495.131)" stroke="black" stroke-opacity="0.1"/>
<rect x="508.998" y="579.309" width="19" height="19" rx="2.5" transform="rotate(114.5 508.998 579.309)" stroke="black" stroke-opacity="0.1"/>
<rect x="392.627" y="504.297" width="19" height="19" rx="2.5" transform="rotate(114.5 392.627 504.297)" stroke="black" stroke-opacity="0.1"/>
<circle cx="423.289" cy="547.942" r="12" transform="rotate(114.5 423.289 547.942)" stroke="black" stroke-opacity="0.1"/>
<path d="M748.564 263.577L746.572 284.266C746.387 286.182 744.198 287.179 742.631 286.062L725.71 273.992C724.143 272.874 724.374 270.48 726.125 269.682L745.038 261.062C746.79 260.264 748.748 261.661 748.564 263.577Z" stroke="black" stroke-opacity="0.1"/>
<path d="M1072.56 351.577L1070.57 372.266C1070.39 374.182 1068.2 375.179 1066.63 374.062L1049.71 361.992C1048.14 360.874 1048.37 358.48 1050.13 357.682L1069.04 349.062C1070.79 348.264 1072.75 349.661 1072.56 351.577Z" stroke="black" stroke-opacity="0.1"/>
<path d="M744.564 336.577L742.572 357.266C742.387 359.182 740.198 360.179 738.631 359.062L721.71 346.992C720.143 345.874 720.374 343.48 722.125 342.682L741.038 334.062C742.79 333.264 744.748 334.661 744.564 336.577Z" stroke="black" stroke-opacity="0.1"/>
<path d="M789.564 416.577L787.572 437.266C787.387 439.182 785.198 440.179 783.631 439.062L766.71 426.992C765.143 425.874 765.374 423.48 767.125 422.682L786.038 414.062C787.79 413.264 789.748 414.661 789.564 416.577Z" stroke="black" stroke-opacity="0.1"/>
<path d="M949.564 351.577L947.572 372.266C947.387 374.182 945.198 375.179 943.631 374.062L926.71 361.992C925.143 360.874 925.374 358.48 927.125 357.682L946.038 349.062C947.79 348.264 949.748 349.661 949.564 351.577Z" stroke="black" stroke-opacity="0.1"/>
<rect x="795.5" y="298.5" width="19" height="19" rx="2.5" stroke="black" stroke-opacity="0.1"/>
<rect x="905.5" y="441.5" width="19" height="19" rx="2.5" stroke="black" stroke-opacity="0.1"/>
<rect x="867.5" y="253.5" width="19" height="19" rx="2.5" stroke="black" stroke-opacity="0.1"/>
<rect x="847.5" y="390.5" width="19" height="19" rx="2.5" stroke="black" stroke-opacity="0.1"/>
<rect x="981.5" y="311.5" width="19" height="19" rx="2.5" stroke="black" stroke-opacity="0.1"/>
<rect x="1028.5" y="267.5" width="19" height="19" rx="2.5" stroke="black" stroke-opacity="0.1"/>
<circle cx="874.5" cy="344.5" r="12" stroke="black" stroke-opacity="0.1"/>
<circle cx="927.5" cy="295.5" r="12" stroke="black" stroke-opacity="0.1"/>
<circle cx="993.5" cy="409.5" r="12" stroke="black" stroke-opacity="0.1"/>
<path d="M122.564 659.577L120.572 680.266C120.387 682.182 118.198 683.179 116.631 682.062L99.7102 669.992C98.1434 668.874 98.374 666.48 100.125 665.682L119.038 657.062C120.79 656.264 122.748 657.661 122.564 659.577Z" stroke="black" stroke-opacity="0.1"/>
<path d="M446.564 747.577L444.572 768.266C444.387 770.182 442.198 771.179 440.631 770.062L423.71 757.992C422.143 756.874 422.374 754.48 424.125 753.682L443.038 745.062C444.79 744.264 446.748 745.661 446.564 747.577Z" stroke="black" stroke-opacity="0.1"/>
<path d="M118.564 732.577L116.572 753.266C116.387 755.182 114.198 756.179 112.631 755.062L95.7102 742.992C94.1434 741.874 94.374 739.48 96.1252 738.682L115.038 730.062C116.79 729.264 118.748 730.661 118.564 732.577Z" stroke="black" stroke-opacity="0.1"/>
<path d="M163.564 812.577L161.572 833.266C161.387 835.182 159.198 836.179 157.631 835.062L140.71 822.992C139.143 821.874 139.374 819.48 141.125 818.682L160.038 810.062C161.79 809.264 163.748 810.661 163.564 812.577Z" stroke="black" stroke-opacity="0.1"/>
<path d="M323.564 747.577L321.572 768.266C321.387 770.182 319.198 771.179 317.631 770.062L300.71 757.992C299.143 756.874 299.374 754.48 301.125 753.682L320.038 745.062C321.79 744.264 323.748 745.661 323.564 747.577Z" stroke="black" stroke-opacity="0.1"/>
<rect x="169.5" y="694.5" width="19" height="19" rx="2.5" stroke="black" stroke-opacity="0.1"/>
<rect x="279.5" y="837.5" width="19" height="19" rx="2.5" stroke="black" stroke-opacity="0.1"/>
<rect x="241.5" y="649.5" width="19" height="19" rx="2.5" stroke="black" stroke-opacity="0.1"/>
<rect x="221.5" y="786.5" width="19" height="19" rx="2.5" stroke="black" stroke-opacity="0.1"/>
<rect x="355.5" y="707.5" width="19" height="19" rx="2.5" stroke="black" stroke-opacity="0.1"/>
<rect x="402.5" y="663.5" width="19" height="19" rx="2.5" stroke="black" stroke-opacity="0.1"/>
<circle cx="248.5" cy="740.5" r="12" stroke="black" stroke-opacity="0.1"/>
<circle cx="301.5" cy="691.5" r="12" stroke="black" stroke-opacity="0.1"/>
<circle cx="367.5" cy="805.5" r="12" stroke="black" stroke-opacity="0.1"/>
<path d="M97.5636 864.577L95.5715 885.266C95.3871 887.182 93.198 888.179 91.6313 887.062L74.7102 874.992C73.1434 873.874 73.374 871.48 75.1252 870.682L94.0384 862.062C95.7896 861.264 97.7481 862.661 97.5636 864.577Z" stroke="black" stroke-opacity="0.1"/>
<path d="M421.564 952.577L419.572 973.266C419.387 975.182 417.198 976.179 415.631 975.062L398.71 962.992C397.143 961.874 397.374 959.48 399.125 958.682L418.038 950.062C419.79 949.264 421.748 950.661 421.564 952.577Z" stroke="black" stroke-opacity="0.1"/>
<path d="M93.5636 937.577L91.5715 958.266C91.3871 960.182 89.198 961.179 87.6313 960.062L70.7102 947.992C69.1434 946.874 69.374 944.48 71.1252 943.682L90.0384 935.062C91.7896 934.264 93.7481 935.661 93.5636 937.577Z" stroke="black" stroke-opacity="0.1"/>
<path d="M138.564 1017.58L136.572 1038.27C136.387 1040.18 134.198 1041.18 132.631 1040.06L115.71 1027.99C114.143 1026.87 114.374 1024.48 116.125 1023.68L135.038 1015.06C136.79 1014.26 138.748 1015.66 138.564 1017.58Z" stroke="black" stroke-opacity="0.1"/>
<path d="M298.564 952.577L296.572 973.266C296.387 975.182 294.198 976.179 292.631 975.062L275.71 962.992C274.143 961.874 274.374 959.48 276.125 958.682L295.038 950.062C296.79 949.264 298.748 950.661 298.564 952.577Z" stroke="black" stroke-opacity="0.1"/>
<rect x="144.5" y="899.5" width="19" height="19" rx="2.5" stroke="black" stroke-opacity="0.1"/>
<rect x="216.5" y="854.5" width="19" height="19" rx="2.5" stroke="black" stroke-opacity="0.1"/>
<rect x="196.5" y="991.5" width="19" height="19" rx="2.5" stroke="black" stroke-opacity="0.1"/>
<rect x="330.5" y="912.5" width="19" height="19" rx="2.5" stroke="black" stroke-opacity="0.1"/>
<rect x="377.5" y="868.5" width="19" height="19" rx="2.5" stroke="black" stroke-opacity="0.1"/>
<circle cx="223.5" cy="945.5" r="12" stroke="black" stroke-opacity="0.1"/>
<circle cx="276.5" cy="896.5" r="12" stroke="black" stroke-opacity="0.1"/>
<circle cx="342.5" cy="1010.5" r="12" stroke="black" stroke-opacity="0.1"/>
<path d="M504.564 693.577L502.572 714.266C502.387 716.182 500.198 717.179 498.631 716.062L481.71 703.992C480.143 702.874 480.374 700.48 482.125 699.682L501.038 691.062C502.79 690.264 504.748 691.661 504.564 693.577Z" stroke="black" stroke-opacity="0.1"/>
<path d="M828.564 781.577L826.572 802.266C826.387 804.182 824.198 805.179 822.631 804.062L805.71 791.992C804.143 790.874 804.374 788.48 806.125 787.682L825.038 779.062C826.79 778.264 828.748 779.661 828.564 781.577Z" stroke="black" stroke-opacity="0.1"/>
<path d="M500.564 766.577L498.572 787.266C498.387 789.182 496.198 790.179 494.631 789.062L477.71 776.992C476.143 775.874 476.374 773.48 478.125 772.682L497.038 764.062C498.79 763.264 500.748 764.661 500.564 766.577Z" stroke="black" stroke-opacity="0.1"/>
<path d="M545.564 846.577L543.572 867.266C543.387 869.182 541.198 870.179 539.631 869.062L522.71 856.992C521.143 855.874 521.374 853.48 523.125 852.682L542.038 844.062C543.79 843.264 545.748 844.661 545.564 846.577Z" stroke="black" stroke-opacity="0.1"/>
<path d="M705.564 781.577L703.572 802.266C703.387 804.182 701.198 805.179 699.631 804.062L682.71 791.992C681.143 790.874 681.374 788.48 683.125 787.682L702.038 779.062C703.79 778.264 705.748 779.661 705.564 781.577Z" stroke="black" stroke-opacity="0.1"/>
<rect x="551.5" y="728.5" width="19" height="19" rx="2.5" stroke="black" stroke-opacity="0.1"/>
<rect x="661.5" y="871.5" width="19" height="19" rx="2.5" stroke="black" stroke-opacity="0.1"/>
<rect x="623.5" y="683.5" width="19" height="19" rx="2.5" stroke="black" stroke-opacity="0.1"/>
<rect x="603.5" y="820.5" width="19" height="19" rx="2.5" stroke="black" stroke-opacity="0.1"/>
<rect x="737.5" y="741.5" width="19" height="19" rx="2.5" stroke="black" stroke-opacity="0.1"/>
<rect x="784.5" y="697.5" width="19" height="19" rx="2.5" stroke="black" stroke-opacity="0.1"/>
<circle cx="630.5" cy="774.5" r="12" stroke="black" stroke-opacity="0.1"/>
<circle cx="683.5" cy="725.5" r="12" stroke="black" stroke-opacity="0.1"/>
<circle cx="749.5" cy="839.5" r="12" stroke="black" stroke-opacity="0.1"/>
<path d="M892.564 649.577L890.572 670.266C890.387 672.182 888.198 673.179 886.631 672.062L869.71 659.992C868.143 658.874 868.374 656.48 870.125 655.682L889.038 647.062C890.79 646.264 892.748 647.661 892.564 649.577Z" stroke="black" stroke-opacity="0.1"/>
<path d="M1216.56 737.577L1214.57 758.266C1214.39 760.182 1212.2 761.179 1210.63 760.062L1193.71 747.992C1192.14 746.874 1192.37 744.48 1194.13 743.682L1213.04 735.062C1214.79 734.264 1216.75 735.661 1216.56 737.577Z" stroke="black" stroke-opacity="0.1"/>
<path d="M888.564 722.577L886.572 743.266C886.387 745.182 884.198 746.179 882.631 745.062L865.71 732.992C864.143 731.874 864.374 729.48 866.125 728.682L885.038 720.062C886.79 719.264 888.748 720.661 888.564 722.577Z" stroke="black" stroke-opacity="0.1"/>
<path d="M933.564 802.577L931.572 823.266C931.387 825.182 929.198 826.179 927.631 825.062L910.71 812.992C909.143 811.874 909.374 809.48 911.125 808.682L930.038 800.062C931.79 799.264 933.748 800.661 933.564 802.577Z" stroke="black" stroke-opacity="0.1"/>
<path d="M1093.56 737.577L1091.57 758.266C1091.39 760.182 1089.2 761.179 1087.63 760.062L1070.71 747.992C1069.14 746.874 1069.37 744.48 1071.13 743.682L1090.04 735.062C1091.79 734.264 1093.75 735.661 1093.56 737.577Z" stroke="black" stroke-opacity="0.1"/>
<rect x="939.5" y="684.5" width="19" height="19" rx="2.5" stroke="black" stroke-opacity="0.1"/>
<rect x="1049.5" y="827.5" width="19" height="19" rx="2.5" stroke="black" stroke-opacity="0.1"/>
<rect x="1011.5" y="639.5" width="19" height="19" rx="2.5" stroke="black" stroke-opacity="0.1"/>
<rect x="991.5" y="776.5" width="19" height="19" rx="2.5" stroke="black" stroke-opacity="0.1"/>
<rect x="1125.5" y="697.5" width="19" height="19" rx="2.5" stroke="black" stroke-opacity="0.1"/>
<rect x="1172.5" y="653.5" width="19" height="19" rx="2.5" stroke="black" stroke-opacity="0.1"/>
<circle cx="1018.5" cy="730.5" r="12" stroke="black" stroke-opacity="0.1"/>
<circle cx="1071.5" cy="681.5" r="12" stroke="black" stroke-opacity="0.1"/>
<circle cx="1137.5" cy="795.5" r="12" stroke="black" stroke-opacity="0.1"/>
<path d="M1421.42 640.564L1400.73 638.572C1398.82 638.387 1397.82 636.198 1398.94 634.631L1411.01 617.71C1412.13 616.143 1414.52 616.374 1415.32 618.125L1423.94 637.038C1424.74 638.79 1423.34 640.748 1421.42 640.564Z" stroke="black" stroke-opacity="0.1"/>
<path d="M1333.42 964.564L1312.73 962.572C1310.82 962.387 1309.82 960.198 1310.94 958.631L1323.01 941.71C1324.13 940.143 1326.52 940.374 1327.32 942.125L1335.94 961.038C1336.74 962.79 1335.34 964.748 1333.42 964.564Z" stroke="black" stroke-opacity="0.1"/>
<path d="M1348.42 636.564L1327.73 634.572C1325.82 634.387 1324.82 632.198 1325.94 630.631L1338.01 613.71C1339.13 612.143 1341.52 612.374 1342.32 614.125L1350.94 633.038C1351.74 634.79 1350.34 636.748 1348.42 636.564Z" stroke="black" stroke-opacity="0.1"/>
<path d="M1268.42 681.564L1247.73 679.572C1245.82 679.387 1244.82 677.198 1245.94 675.631L1258.01 658.71C1259.13 657.143 1261.52 657.374 1262.32 659.125L1270.94 678.038C1271.74 679.79 1270.34 681.748 1268.42 681.564Z" stroke="black" stroke-opacity="0.1"/>
<path d="M1333.42 841.564L1312.73 839.572C1310.82 839.387 1309.82 837.198 1310.94 835.631L1323.01 818.71C1324.13 817.143 1326.52 817.374 1327.32 819.125L1335.94 838.038C1336.74 839.79 1335.34 841.748 1333.42 841.564Z" stroke="black" stroke-opacity="0.1"/>
<rect x="1386.5" y="687.5" width="19" height="19" rx="2.5" transform="rotate(90 1386.5 687.5)" stroke="black" stroke-opacity="0.1"/>
<rect x="1243.5" y="797.5" width="19" height="19" rx="2.5" transform="rotate(90 1243.5 797.5)" stroke="black" stroke-opacity="0.1"/>
<rect x="1431.5" y="759.5" width="19" height="19" rx="2.5" transform="rotate(90 1431.5 759.5)" stroke="black" stroke-opacity="0.1"/>
<rect x="1294.5" y="739.5" width="19" height="19" rx="2.5" transform="rotate(90 1294.5 739.5)" stroke="black" stroke-opacity="0.1"/>
<rect x="1373.5" y="873.5" width="19" height="19" rx="2.5" transform="rotate(90 1373.5 873.5)" stroke="black" stroke-opacity="0.1"/>
<rect x="1417.5" y="920.5" width="19" height="19" rx="2.5" transform="rotate(90 1417.5 920.5)" stroke="black" stroke-opacity="0.1"/>
<circle cx="1340.5" cy="766.5" r="12" transform="rotate(90 1340.5 766.5)" stroke="black" stroke-opacity="0.1"/>
<circle cx="1389.5" cy="819.5" r="12" transform="rotate(90 1389.5 819.5)" stroke="black" stroke-opacity="0.1"/>
<circle cx="1275.5" cy="885.5" r="12" transform="rotate(90 1275.5 885.5)" stroke="black" stroke-opacity="0.1"/>
<path d="M1187.84 1027L1169.57 1017.08C1167.88 1016.16 1167.82 1013.76 1169.46 1012.75L1187.18 1001.89C1188.82 1000.89 1190.94 1002.03 1190.99 1003.96L1191.53 1024.74C1191.58 1026.66 1189.53 1027.92 1187.84 1027Z" stroke="black" stroke-opacity="0.1"/>
<path d="M1235.9 913.776L1217.63 903.859C1215.94 902.94 1215.88 900.535 1217.52 899.53L1235.24 888.67C1236.88 887.664 1239 888.812 1239.05 890.736L1239.59 911.514C1239.64 913.437 1237.59 914.694 1235.9 913.776Z" stroke="black" stroke-opacity="0.1"/>
<rect x="1170.34" y="838.08" width="19" height="19" rx="2.5" transform="rotate(113 1170.34 838.08)" stroke="black" stroke-opacity="0.1"/>
<circle cx="1165.41" cy="931.587" r="12" transform="rotate(113 1165.41 931.587)" stroke="black" stroke-opacity="0.1"/>
<path d="M1097.56 1003.58L1095.57 1024.27C1095.39 1026.18 1093.2 1027.18 1091.63 1026.06L1074.71 1013.99C1073.14 1012.87 1073.37 1010.48 1075.13 1009.68L1094.04 1001.06C1095.79 1000.26 1097.75 1001.66 1097.56 1003.58Z" stroke="black" stroke-opacity="0.1"/>
<rect x="1216.5" y="993.5" width="19" height="19" rx="2.5" stroke="black" stroke-opacity="0.1"/>
<rect x="1377.5" y="1007.5" width="19" height="19" rx="2.5" stroke="black" stroke-opacity="0.1"/>
<circle cx="1276.5" cy="1035.5" r="12" stroke="black" stroke-opacity="0.1"/>
<path d="M567.235 812.681L548.97 822.599C547.278 823.517 545.227 822.26 545.278 820.336L545.822 799.559C545.872 797.635 547.986 796.487 549.627 797.493L567.349 808.353C568.99 809.358 568.927 811.763 567.235 812.681Z" stroke="black" stroke-opacity="0.1"/>
<path d="M504.479 850.186L486.213 860.104C484.522 861.022 482.471 859.765 482.521 857.841L483.065 837.064C483.116 835.14 485.23 833.992 486.871 834.998L504.592 845.858C506.233 846.863 506.17 849.268 504.479 850.186Z" stroke="black" stroke-opacity="0.1"/>
<path d="M463.32 932.228L445.054 942.146C443.363 943.064 441.312 941.807 441.362 939.883L441.906 919.106C441.957 917.182 444.071 916.034 445.712 917.04L463.433 927.9C465.074 928.905 465.011 931.31 463.32 932.228Z" stroke="black" stroke-opacity="0.1"/>
<path d="M606.678 1028.53L588.412 1038.44C586.721 1039.36 584.67 1038.11 584.72 1036.18L585.264 1015.4C585.314 1013.48 587.429 1012.33 589.069 1013.34L606.791 1024.2C608.432 1025.2 608.369 1027.61 606.678 1028.53Z" stroke="black" stroke-opacity="0.1"/>
<rect x="564.53" y="871.122" width="19" height="19" rx="2.5" transform="rotate(56 564.53 871.122)" stroke="black" stroke-opacity="0.1"/>
<rect x="642.098" y="905.649" width="19" height="19" rx="2.5" transform="rotate(56 642.098 905.649)" stroke="black" stroke-opacity="0.1"/>
<rect x="517.336" y="965.678" width="19" height="19" rx="2.5" transform="rotate(56 517.336 965.678)" stroke="black" stroke-opacity="0.1"/>
<circle cx="570.57" cy="962.339" r="12" transform="rotate(56 570.57 962.339)" stroke="black" stroke-opacity="0.1"/>
<circle cx="640.83" cy="978.877" r="12" transform="rotate(56 640.83 978.877)" stroke="black" stroke-opacity="0.1"/>
<path d="M748.564 865.577L746.572 886.266C746.387 888.182 744.198 889.179 742.631 888.062L725.71 875.992C724.143 874.874 724.374 872.48 726.125 871.682L745.038 863.062C746.79 862.264 748.748 863.661 748.564 865.577Z" stroke="black" stroke-opacity="0.1"/>
<path d="M1072.56 953.577L1070.57 974.266C1070.39 976.182 1068.2 977.179 1066.63 976.062L1049.71 963.992C1048.14 962.874 1048.37 960.48 1050.13 959.682L1069.04 951.062C1070.79 950.264 1072.75 951.661 1072.56 953.577Z" stroke="black" stroke-opacity="0.1"/>
<path d="M744.564 938.577L742.572 959.266C742.387 961.182 740.198 962.179 738.631 961.062L721.71 948.992C720.143 947.874 720.374 945.48 722.125 944.682L741.038 936.062C742.79 935.264 744.748 936.661 744.564 938.577Z" stroke="black" stroke-opacity="0.1"/>
<path d="M789.564 1018.58L787.572 1039.27C787.387 1041.18 785.198 1042.18 783.631 1041.06L766.71 1028.99C765.143 1027.87 765.374 1025.48 767.125 1024.68L786.038 1016.06C787.79 1015.26 789.748 1016.66 789.564 1018.58Z" stroke="black" stroke-opacity="0.1"/>
<path d="M949.564 953.577L947.572 974.266C947.387 976.182 945.198 977.179 943.631 976.062L926.71 963.992C925.143 962.874 925.374 960.48 927.125 959.682L946.038 951.062C947.79 950.264 949.748 951.661 949.564 953.577Z" stroke="black" stroke-opacity="0.1"/>
<rect x="795.5" y="900.5" width="19" height="19" rx="2.5" stroke="black" stroke-opacity="0.1"/>
<rect x="867.5" y="855.5" width="19" height="19" rx="2.5" stroke="black" stroke-opacity="0.1"/>
<rect x="847.5" y="992.5" width="19" height="19" rx="2.5" stroke="black" stroke-opacity="0.1"/>
<rect x="981.5" y="913.5" width="19" height="19" rx="2.5" stroke="black" stroke-opacity="0.1"/>
<rect x="1028.5" y="869.5" width="19" height="19" rx="2.5" stroke="black" stroke-opacity="0.1"/>
<circle cx="874.5" cy="946.5" r="12" stroke="black" stroke-opacity="0.1"/>
<circle cx="927.5" cy="897.5" r="12" stroke="black" stroke-opacity="0.1"/>
<circle cx="993.5" cy="1011.5" r="12" stroke="black" stroke-opacity="0.1"/>
</g>
<defs>
<clipPath id="clip0_5831_10">
<rect width="1440" height="1024" fill="white"/>
</clipPath>
</defs>
</svg>
