<svg width="187" height="43" viewBox="0 0 187 43" fill="none" xmlns="http://www.w3.org/2000/svg">
<path d="M0.256 29L3.904 9.544L4.256 7.88H11.104L7.072 29H0.256ZM20.064 27.112C19.488 28.7973 18.0907 29.64 15.872 29.64C14.2293 29.64 12.8427 28.6587 11.712 26.696C10.56 24.7333 9.87733 22.152 9.664 18.952C12.0107 14.664 13.9947 11.6347 15.616 9.864C17.1733 8.17867 18.7627 7.336 20.384 7.336C21.2587 7.336 22.0053 7.57067 22.624 8.04C23.264 8.50933 23.6587 9.11733 23.808 9.864C23.0827 10.1627 22.5493 10.4293 22.208 10.664C21.3547 11.304 20.352 12.3387 19.2 13.768L16.288 17.256C15.8187 17.8107 15.488 18.216 15.296 18.472C15.616 20.264 16.256 22.0453 17.216 23.816C18.1333 25.5013 19.0827 26.6 20.064 27.112ZM23.2638 28.04C22.7731 27.4853 22.4104 26.7707 22.1758 25.896C21.9624 25.0213 21.8558 23.8693 21.8558 22.44C21.8558 21.0107 22.1011 19.6453 22.5918 18.344C23.0824 17.0427 23.7758 15.9227 24.6718 14.984C26.5064 13.0213 28.9384 12.04 31.9678 12.04C33.0558 12.04 33.9944 12.2213 34.7838 12.584L40.2558 12.04L37.8878 24.52C37.8238 24.776 37.7917 25.1387 37.7917 25.608C37.7917 26.0773 37.9304 26.4613 38.2078 26.76C38.5064 27.0587 38.8691 27.2293 39.2958 27.272C39.0824 27.9973 38.5811 28.5733 37.7917 29C37.0238 29.4267 36.2024 29.64 35.3278 29.64C34.4531 29.64 33.7171 29.4693 33.1198 29.128C32.5438 28.808 32.1704 28.3707 31.9998 27.816C31.6584 28.3493 31.1251 28.7867 30.3998 29.128C29.6744 29.4693 28.8211 29.64 27.8398 29.64C26.8798 29.64 26.0051 29.512 25.2158 29.256C24.4264 29 23.7758 28.5947 23.2638 28.04ZM30.0158 15.048C29.7811 15.432 29.5571 15.9547 29.3438 16.616C29.1304 17.256 28.8424 18.4507 28.4798 20.2C28.1384 21.928 27.9678 23.4107 27.9678 24.648C27.9678 25.8853 28.0638 26.6853 28.2558 27.048C28.4478 27.4107 28.7144 27.592 29.0558 27.592C29.7384 27.592 30.3251 27.272 30.8158 26.632C31.3278 25.9707 31.6798 25.064 31.8718 23.912L33.5678 14.536C33.1198 14.152 32.6291 13.96 32.0958 13.96C31.5838 13.96 31.1678 14.0453 30.8478 14.216C30.5491 14.3867 30.2718 14.664 30.0158 15.048ZM42.4935 25.8C42.4935 25.224 42.6428 24.2107 42.9415 22.76L44.6375 14.12H42.7495L42.8775 13.16C45.4375 12.392 47.9548 11.0693 50.4295 9.192H51.9655L51.1975 12.68H53.6935L53.4055 14.12H50.9415L49.3095 22.76C49.0322 24.0827 48.8935 24.968 48.8935 25.416C48.8935 26.44 49.3415 27.0587 50.2375 27.272C50.0242 27.9973 49.5335 28.5733 48.7655 29C47.9975 29.4267 47.0695 29.64 45.9815 29.64C44.8935 29.64 44.0402 29.2987 43.4215 28.616C42.8028 27.9333 42.4935 26.9947 42.4935 25.8ZM54.795 28.04C54.3043 27.4853 53.9417 26.7707 53.707 25.896C53.4937 25.0213 53.387 23.8693 53.387 22.44C53.387 21.0107 53.6323 19.6453 54.123 18.344C54.6137 17.0427 55.307 15.9227 56.203 14.984C58.0377 13.0213 60.4697 12.04 63.499 12.04C64.587 12.04 65.5257 12.2213 66.315 12.584L71.787 12.04L69.419 24.52C69.355 24.776 69.323 25.1387 69.323 25.608C69.323 26.0773 69.4617 26.4613 69.739 26.76C70.0377 27.0587 70.4003 27.2293 70.827 27.272C70.6137 27.9973 70.1123 28.5733 69.323 29C68.555 29.4267 67.7337 29.64 66.859 29.64C65.9843 29.64 65.2483 29.4693 64.651 29.128C64.075 28.808 63.7017 28.3707 63.531 27.816C63.1897 28.3493 62.6563 28.7867 61.931 29.128C61.2057 29.4693 60.3523 29.64 59.371 29.64C58.411 29.64 57.5363 29.512 56.747 29.256C55.9577 29 55.307 28.5947 54.795 28.04ZM61.547 15.048C61.3123 15.432 61.0883 15.9547 60.875 16.616C60.6617 17.256 60.3737 18.4507 60.011 20.2C59.6697 21.928 59.499 23.4107 59.499 24.648C59.499 25.8853 59.595 26.6853 59.787 27.048C59.979 27.4107 60.2457 27.592 60.587 27.592C61.2697 27.592 61.8563 27.272 62.347 26.632C62.859 25.9707 63.211 25.064 63.403 23.912L65.099 14.536C64.651 14.152 64.1603 13.96 63.627 13.96C63.115 13.96 62.699 14.0453 62.379 14.216C62.0803 14.3867 61.803 14.664 61.547 15.048ZM81.1608 27.24C80.4994 28.84 79.1128 29.64 77.0008 29.64C75.9341 29.64 75.0594 29.2667 74.3768 28.52C73.8221 27.9013 73.5448 27.24 73.5448 26.536C73.5448 24.936 73.9181 22.3867 74.6648 18.888L77.0008 6.6L83.4968 5.96L80.3928 22.152C80.0301 23.7307 79.8488 24.7973 79.8488 25.352C79.8488 26.568 80.2861 27.1973 81.1608 27.24ZM90.8638 29.64C86.1704 29.64 83.8238 27.432 83.8238 23.016C83.8238 19.88 84.6878 17.2987 86.4158 15.272C88.2504 13.1173 90.7571 12.04 93.9358 12.04C96.2398 12.04 97.9784 12.5733 99.1518 13.64C100.325 14.7067 100.912 16.36 100.912 18.6C100.912 22.0133 99.9944 24.712 98.1598 26.696C96.3678 28.6587 93.9358 29.64 90.8638 29.64ZM91.6958 15.72C91.4398 16.296 91.2051 17.0213 90.9918 17.896C90.7998 18.7493 90.5758 19.8587 90.3198 21.224C90.0638 22.5893 89.9358 24.1147 89.9358 25.8C89.9358 26.3547 90.0211 26.8133 90.1918 27.176C90.3838 27.5387 90.7251 27.72 91.2158 27.72C91.7064 27.72 92.1011 27.6027 92.3998 27.368C92.7198 27.1333 92.9971 26.7387 93.2318 26.184C93.6584 25.2027 94.0424 23.8053 94.3838 21.992C94.7251 20.1573 94.9064 18.8453 94.9278 18.056C94.9704 17.2667 94.9918 16.584 94.9918 16.008C94.9918 15.4107 94.9064 14.92 94.7358 14.536C94.5651 14.152 94.2344 13.96 93.7438 13.96C93.2744 13.96 92.8798 14.1093 92.5598 14.408C92.2398 14.7067 91.9518 15.144 91.6958 15.72ZM105.066 15.624C105.791 14.6 106.698 13.7467 107.786 13.064C108.895 12.3813 110.122 12.04 111.466 12.04C112.81 12.04 113.802 12.2533 114.442 12.68L120.714 12.04L118.538 24.328C117.791 28.5093 116.629 31.4213 115.05 33.064C113.535 34.6213 111.306 35.4 108.362 35.4C106.122 35.4 104.362 35.048 103.082 34.344C101.802 33.64 101.162 32.7013 101.162 31.528C101.162 30.6533 101.493 29.96 102.154 29.448C102.815 28.9573 103.658 28.712 104.682 28.712C105.578 28.712 106.367 28.9147 107.05 29.32C107.455 29.5333 107.754 29.7893 107.946 30.088C107.455 30.5147 107.21 31.08 107.21 31.784C107.21 32.7013 107.637 33.16 108.49 33.16C109.919 33.16 111.039 31.4747 111.85 28.104C112.085 27.1867 112.298 26.2693 112.49 25.352C111.53 26.5253 109.962 27.112 107.786 27.112C106.271 27.112 105.077 26.7493 104.202 26.024C103.327 25.2987 102.89 24.0827 102.89 22.376C102.89 21.3093 103.071 20.1787 103.434 18.984C103.797 17.768 104.341 16.648 105.066 15.624ZM109.226 22.472C109.226 23.9227 109.599 24.648 110.346 24.648C110.858 24.648 111.359 24.3707 111.85 23.816C112.234 23.368 112.501 22.8133 112.65 22.152L114.282 13.928C114.175 13.9067 114.069 13.8747 113.962 13.832C113.749 13.7467 113.503 13.704 113.226 13.704C111.925 13.704 110.89 14.7707 110.122 16.904C109.525 18.568 109.226 20.424 109.226 22.472ZM132.222 27.656C131.198 28.9787 129.417 29.64 126.878 29.64C125.556 29.64 124.414 29.2453 123.454 28.456C122.494 27.6453 122.014 26.664 122.014 25.512C122.014 24.872 122.046 24.392 122.11 24.072L124.254 12.68L130.75 12.04L128.414 24.392C128.329 24.8613 128.286 25.2347 128.286 25.512C128.286 26.7493 128.66 27.368 129.406 27.368C130.238 27.368 130.953 26.8027 131.55 25.672C131.742 25.3093 131.881 24.8933 131.966 24.424L134.238 12.68L140.542 12.04L138.174 24.52C138.11 24.84 138.078 25.1707 138.078 25.512C138.078 25.8533 138.174 26.216 138.366 26.6C138.558 26.9627 138.964 27.1867 139.582 27.272C139.454 27.784 139.166 28.2107 138.718 28.552C137.78 29.2773 136.798 29.64 135.774 29.64C134.772 29.64 133.972 29.4587 133.374 29.096C132.777 28.7333 132.393 28.2533 132.222 27.656ZM155.098 23.592C155.631 23.9547 155.898 24.5413 155.898 25.352C155.898 26.1413 155.695 26.792 155.29 27.304C154.884 27.816 154.351 28.2427 153.69 28.584C152.324 29.288 150.906 29.64 149.434 29.64C147.962 29.64 146.788 29.48 145.914 29.16C145.06 28.84 144.346 28.3813 143.77 27.784C142.639 26.6533 142.074 25.0533 142.074 22.984C142.074 19.7627 142.948 17.1707 144.698 15.208C146.575 13.096 149.146 12.04 152.41 12.04C154.436 12.04 155.951 12.4667 156.954 13.32C157.7 13.96 158.074 14.8027 158.074 15.848C158.074 19.6027 154.831 21.48 148.346 21.48C148.26 22.0347 148.218 22.5467 148.218 23.016C148.218 23.9973 148.431 24.68 148.858 25.064C149.306 25.4267 149.935 25.608 150.746 25.608C151.556 25.608 152.388 25.4267 153.242 25.064C154.116 24.68 154.735 24.1893 155.098 23.592ZM148.57 20.104C150.084 20.104 151.279 19.6347 152.154 18.696C153.028 17.8 153.466 16.6373 153.466 15.208C153.466 14.7173 153.37 14.344 153.178 14.088C153.007 13.8107 152.74 13.672 152.378 13.672C152.015 13.672 151.674 13.7467 151.354 13.896C151.055 14.024 150.746 14.3227 150.426 14.792C149.636 15.8587 149.018 17.6293 148.57 20.104Z" fill="url(#paint0_linear_5831_334)"/>
<path d="M181 18.86H180.24C179.44 18.86 178.68 19.17 178.12 19.73L176.41 21.42C175.63 22.19 174.36 22.19 173.58 21.42L171.87 19.73C171.31 19.17 170.54 18.86 169.75 18.86H169C167.34 18.86 166 17.53 166 15.89V4.98001C166 3.34001 167.34 2.01001 169 2.01001H181C182.66 2.01001 184 3.34001 184 4.98001V15.89C184 17.52 182.66 18.86 181 18.86Z" stroke="#414071" stroke-width="1.5" stroke-miterlimit="10" stroke-linecap="round" stroke-linejoin="round"/>
<path d="M170 9.15998C170 8.22998 170.76 7.46998 171.69 7.46998C172.62 7.46998 173.38 8.22998 173.38 9.15998C173.38 11.04 170.71 11.24 170.12 13.03C170 13.4 170.31 13.77 170.7 13.77H173.38M179.04 13.76V8.04998C179.041 7.92363 179 7.80055 178.924 7.69947C178.848 7.59839 178.741 7.52483 178.62 7.48998C178.498 7.45544 178.368 7.46109 178.249 7.5061C178.13 7.55111 178.029 7.6331 177.96 7.73998C177.24 8.89998 176.46 10.22 175.78 11.38C175.67 11.57 175.67 11.82 175.78 12.01C175.89 12.2 176.1 12.32 176.33 12.32H180" stroke="#414071" stroke-width="1.5" stroke-linecap="round" stroke-linejoin="round"/>
<defs>
<linearGradient id="paint0_linear_5831_334" x1="14.2982" y1="10" x2="155.095" y2="30.2327" gradientUnits="userSpaceOnUse">
<stop stop-color="#1E1919"/>
<stop offset="1" stop-color="#1F2455" stop-opacity="0.76"/>
</linearGradient>
</defs>
</svg>
