<svg width="1000" height="574" viewBox="0 0 1000 574" fill="none" xmlns="http://www.w3.org/2000/svg">
<g clip-path="url(#clip0_5831_344)">
<path d="M485.045 343.21C559.142 343.21 627.26 352.815 689.399 372.026C751.734 391.432 809.071 419.071 861.409 454.943V516.102C842.003 501.989 818.088 488.757 789.665 476.408C761.438 464.254 730.368 453.571 696.456 444.358C662.74 435.145 627.848 427.892 591.78 422.599C555.712 417.503 520.134 414.955 485.045 414.955C438.392 414.955 391.053 419.463 343.027 428.48C295.001 437.497 250.406 449.651 209.241 464.94C168.077 480.23 134.557 497.284 108.682 516.102V454.943C161.02 419.071 218.259 391.432 280.398 372.026C342.733 352.815 410.949 343.21 485.045 343.21Z" fill="#D5E3E6"/>
<path d="M265.295 229.085C265.295 214.58 270.49 202.132 280.879 191.743C291.268 181.354 303.716 176.159 318.222 176.159C332.727 176.159 345.175 181.354 355.564 191.743C365.953 202.132 371.148 214.58 371.148 229.085C371.148 243.591 365.953 256.038 355.564 266.428C345.175 276.817 332.727 282.011 318.222 282.011C308.616 282.011 299.795 279.561 291.759 274.661C283.722 269.956 277.253 263.585 272.352 255.548C267.648 247.707 265.295 238.886 265.295 229.085ZM600.494 229.085C600.494 214.58 605.689 202.132 616.078 191.743C626.467 181.354 638.915 176.159 653.42 176.159C667.926 176.159 680.374 181.354 690.763 191.743C701.152 202.132 706.347 214.58 706.347 229.085C706.347 243.591 701.152 256.038 690.763 266.428C680.374 276.817 667.926 282.011 653.42 282.011C643.815 282.011 634.994 279.561 626.957 274.661C618.92 269.956 612.452 263.585 607.551 255.548C602.847 247.707 600.494 238.886 600.494 229.085Z" fill="#D5E3E6"/>
<path d="M776 99.3236C673.324 114.414 609.218 89.3956 590 75" stroke="#D5E3E6" stroke-width="25"/>
<path d="M190 99.5C292.4 114.7 356.333 89.5 375.5 75" stroke="#D5E3E6" stroke-width="25"/>
</g>
<defs>
<clipPath id="clip0_5831_344">
<rect width="1000" height="574" fill="white"/>
</clipPath>
</defs>
</svg>
